<?xml version="1.0" standalone="no"?>
<!DOCTYPE svg PUBLIC "-//W3C//DTD SVG 20010904//EN"
 "http://www.w3.org/TR/2001/REC-SVG-20010904/DTD/svg10.dtd">
<svg version="1.0" xmlns="http://www.w3.org/2000/svg"
 width="512.000000pt" height="512.000000pt" viewBox="0 0 512.000000 512.000000"
 preserveAspectRatio="xMidYMid meet">

<g transform="translate(0.000000,512.000000) scale(0.100000,-0.100000)"
fill="#000000" stroke="none">
<path d="M106 4800 c-107 -32 -136 -174 -51 -249 20 -17 37 -32 38 -33 1 -1
191 -4 422 -8 l419 -5 31 -145 32 -145 152 -3 c142 -2 152 -1 147 15 -2 10
-25 115 -51 233 -25 118 -51 230 -58 248 -15 44 -57 82 -103 93 -50 11 -939
10 -978 -1z"/>
<path d="M1406 2089 c-102 -24 -228 -125 -278 -223 -65 -126 -63 -288 4 -419
43 -86 147 -172 253 -213 48 -18 103 -19 1365 -24 723 -3 1290 -8 1259 -11
-78 -8 -192 -64 -252 -125 -85 -85 -128 -190 -128 -311 -1 -197 114 -359 300
-425 70 -24 195 -27 268 -5 142 43 257 158 300 300 22 73 19 198 -5 268 -58
165 -210 286 -377 302 -22 2 38 4 133 5 186 2 218 9 261 56 37 39 41 128 9
176 -13 19 -39 43 -58 52 -33 17 -125 18 -1505 18 -1413 0 -1472 1 -1505 19
-38 20 -80 88 -80 129 0 45 37 107 79 130 21 12 49 22 61 22 14 0 20 5 17 13
-2 6 -17 72 -33 145 -16 72 -33 132 -39 131 -5 -1 -27 -5 -49 -10z"/>
<path d="M1824 1185 c-73 -23 -127 -57 -185 -114 -97 -97 -134 -197 -127 -338
3 -73 10 -100 35 -156 132 -280 499 -347 716 -130 236 236 132 640 -190 738
-58 18 -193 18 -249 0z"/>
</g>
</svg>
