<?xml version="1.0" standalone="no"?>
<!DOCTYPE svg PUBLIC "-//W3C//DTD SVG 20010904//EN"
 "http://www.w3.org/TR/2001/REC-SVG-20010904/DTD/svg10.dtd">
<svg version="1.0" xmlns="http://www.w3.org/2000/svg"
 width="512.000000pt" height="512.000000pt" viewBox="0 0 512.000000 512.000000"
 preserveAspectRatio="xMidYMid meet">

<g transform="translate(0.000000,512.000000) scale(0.100000,-0.100000)"
fill="#000000" stroke="none">
<path d="M2455 4173 c-113 -66 -177 -117 -280 -225 -75 -78 -142 -166 -200
-264 -10 -15 -15 -14 -60 18 -106 76 -207 109 -326 107 -54 -1 -66 -3 -43 -8
35 -9 134 -61 134 -71 0 -4 21 -15 48 -25 74 -28 135 -60 186 -100 27 -20 49
-35 51 -33 2 2 30 44 63 93 80 123 176 231 280 316 48 38 95 82 104 96 9 15
42 53 73 85 31 32 55 58 53 58 -2 0 -39 -21 -83 -47z"/>
<path d="M3705 4040 c5 -8 26 -38 47 -66 21 -28 38 -54 38 -57 0 -3 30 -50 67
-104 86 -126 145 -253 177 -377 28 -106 32 -146 15 -146 -5 0 -7 -6 -3 -12 4
-7 3 -10 -1 -5 -5 4 -85 -68 -179 -161 -177 -174 -225 -208 -276 -197 -16 3
-38 1 -49 -5 -38 -20 -22 4 62 89 45 46 68 74 50 63 -17 -12 -45 -22 -62 -22
-26 0 -47 -15 -120 -85 -48 -47 -90 -83 -92 -81 -2 2 -37 1 -77 -3 l-72 -7 47
49 c42 43 45 49 23 43 -14 -3 -35 -6 -48 -6 -14 0 -44 -20 -75 -49 -51 -48
-53 -49 -104 -45 -50 3 -53 2 -59 -24 -16 -67 -57 -208 -63 -215 -4 -4 -17 -9
-29 -12 -16 -3 -22 1 -22 14 0 14 6 17 24 14 17 -4 26 0 29 14 14 45 47 196
47 212 0 9 14 30 30 46 17 16 30 32 30 36 0 12 -84 -4 -95 -18 -7 -9 -10 35
-10 139 0 140 -2 158 -24 206 -22 49 -128 162 -152 162 -20 0 -25 2 -44 18
-19 16 -19 16 -6 0 18 -23 2 -22 -28 1 -14 10 -30 17 -36 15 -7 -3 -18 2 -25
11 -7 8 -19 15 -27 15 -8 0 -11 4 -8 10 3 5 -10 3 -29 -5 -41 -17 -57 -19 -36
-4 12 8 10 10 -10 6 -56 -11 -74 -17 -84 -27 -5 -5 -17 -10 -26 -10 -24 0
-154 -113 -187 -164 -51 -76 -64 -212 -37 -361 5 -22 3 -27 -5 -19 -6 6 -14
47 -18 93 l-6 82 -42 -41 c-32 -32 -48 -40 -63 -36 -11 4 -23 3 -25 -1 -3 -5
-18 -8 -34 -7 -15 1 -37 3 -48 3 -16 1 -11 9 25 46 l44 45 -44 0 c-39 0 -50
-5 -90 -45 -48 -48 -92 -61 -158 -49 l-34 7 39 40 c21 22 34 38 28 35 -5 -3
-19 -2 -30 2 -25 9 -61 -8 -100 -49 -28 -30 -31 -31 -90 -25 -33 4 -62 8 -64
10 -3 3 10 20 29 39 24 25 29 36 19 39 -49 15 -58 13 -95 -25 -43 -44 -63 -48
-82 -19 -7 12 -23 20 -39 20 -27 0 -27 0 16 44 l42 43 -38 6 c-32 6 -42 2 -68
-22 -25 -24 -36 -28 -65 -23 -19 2 -40 11 -48 19 -7 7 -19 10 -25 7 -7 -4 7
13 29 37 32 34 40 49 34 64 -7 19 -7 19 -15 -4 -5 -16 -10 -20 -15 -11 -6 9
-14 8 -38 -4 -34 -18 -52 -43 -52 -75 0 -16 -6 -21 -28 -21 -72 0 -342 -105
-302 -118 8 -2 30 -11 48 -19 29 -14 39 -14 98 1 37 9 69 14 72 11 3 -3 -1 -5
-9 -5 -32 0 -132 -58 -189 -110 -155 -139 -293 -279 -316 -320 -14 -25 -34
-70 -45 -100 -18 -50 -19 -51 -14 -15 8 49 58 209 91 290 31 79 3 44 -41 -50
-70 -148 -95 -335 -77 -561 18 -225 62 -357 163 -490 27 -36 49 -67 49 -68 0
-2 -12 -7 -27 -11 -16 -3 -36 -14 -45 -22 -58 -52 31 -114 220 -156 l97 -22
1745 0 c1604 0 1752 1 1835 17 138 26 217 54 260 91 33 29 37 37 31 61 -5 21
-18 33 -55 49 l-48 20 39 51 c49 65 112 193 132 271 51 201 45 520 -13 687
-25 73 -44 106 -35 63 3 -16 12 -50 19 -75 32 -108 27 -115 -19 -25 -37 73
-56 98 -97 129 -38 28 -48 41 -40 50 8 9 5 19 -12 34 -13 12 -26 19 -30 16 -4
-4 -25 5 -48 20 -28 19 -39 32 -35 43 9 22 -24 44 -54 38 -19 -4 -33 2 -57 28
-18 19 -47 40 -65 46 -18 7 -46 19 -63 27 -26 13 -26 14 -5 9 81 -18 115 -16
145 9 l29 25 -59 27 c-33 14 -97 36 -143 48 l-84 21 -18 -22 c-10 -13 -24 -23
-32 -23 -15 0 -79 -55 -73 -62 3 -3 -18 -11 -45 -18 -33 -9 -46 -17 -38 -22 9
-5 7 -8 -8 -8 -11 0 -27 -6 -35 -12 -7 -7 40 43 106 110 117 119 120 122 126
95 14 -59 8 115 -6 204 -34 211 -111 383 -238 532 -46 54 -138 137 -122 111z
m-1547 -1240 c0 -9 -3 -7 -8 5 -5 11 -8 29 -8 40 0 16 2 15 8 -5 4 -14 8 -32
8 -40z m26 -90 c4 -24 3 -29 -3 -15 -4 11 -11 36 -15 55 -4 24 -3 29 3 15 4
-11 11 -36 15 -55z m723 -2 c-3 -8 -6 -5 -6 6 -1 11 2 17 5 13 3 -3 4 -12 1
-19z m-672 -80 c17 -3 20 -11 21 -53 1 -45 1 -46 -3 -7 -3 33 -8 42 -23 42
-11 0 -24 9 -30 19 -14 27 -13 38 3 19 6 -9 21 -18 32 -20z m614 -144 c-26
-72 -21 -86 14 -37 15 21 27 33 27 27 0 -16 -44 -79 -55 -79 -6 0 -11 21 -13
46 -2 34 2 52 18 72 12 15 23 27 25 27 2 0 -5 -25 -16 -56z m-531 -4 c-2 -17
-5 -15 -14 15 -10 32 -10 35 3 22 8 -8 13 -24 11 -37z m-9 -54 c6 -4 11 -15
11 -24 0 -10 -13 2 -30 28 -16 25 -30 50 -30 55 0 6 9 -4 19 -21 11 -18 24
-35 30 -38z"/>
<path d="M1137 3557 c-40 -68 -66 -158 -72 -248 l-5 -84 14 70 c7 39 27 101
45 139 17 38 31 82 31 98 0 16 5 38 10 49 21 37 2 18 -23 -24z"/>
<path d="M1375 3430 c-11 -5 -34 -9 -51 -9 -17 -1 -37 -8 -45 -17 -11 -13 -9
-14 17 -9 54 12 94 26 99 36 7 10 7 10 -20 -1z"/>
</g>
</svg>
